<?xml version="1.0" encoding="UTF-8"?>
<!DOCTYPE svg PUBLIC "-//W3C//DTD SVG 1.1//EN" "http://www.w3.org/Graphics/SVG/1.1/DTD/svg11.dtd">
<!-- Creator: CorelDRAW -->
<svg xmlns="http://www.w3.org/2000/svg" xml:space="preserve" width="2048px" height="2048px" style="shape-rendering:geometricPrecision; text-rendering:geometricPrecision; image-rendering:optimizeQuality; fill-rule:evenodd; clip-rule:evenodd"
viewBox="0 0 2048 2048"
 xmlns:xlink="http://www.w3.org/1999/xlink">
 <defs>
  <style type="text/css">
   <![CDATA[
    .fil1 {fill:none}
    .fil0 {fill:#424242}
   ]]>
  </style>
 </defs>
 <g id="Layer_x0020_1">
  <metadata id="CorelCorpID_0Corel-Layer"/>
  <path class="fil0" d="M332.001 463.998l1384 0c19.0937,0 36.6284,7.12914 49.4977,18.6059 13.8851,12.3839 22.5024,29.7402 22.5024,49.0701l0 984.652c0,19.3323 -8.62205,36.6874 -22.5036,49.0678 -12.8705,11.4803 -30.4075,18.6083 -49.4965,18.6083l-1384 0c-19.089,0 -36.6272,-7.1256 -49.4989,-18.6071 -13.8815,-12.3791 -22.5012,-29.7343 -22.5012,-49.0689l0 -984.652c0,-19.3358 8.61851,-36.6898 22.5,-49.0701 12.8693,-11.4791 30.4075,-18.6059 49.5,-18.6059zm131.773 524.914l0 60.8339c10.2473,-11.9445 22.4599,-17.954 36.6768,-17.954 7.3193,0 13.8685,1.3878 19.7634,4.08426 5.85709,2.69764 10.2862,6.16418 13.2532,10.363 2.96811,4.23898 5.00906,8.89961 6.08741,14.0244 1.11732,5.08583 1.65709,13.0595 1.65709,23.8099l0 70.3111 -31.7079 0 0 -63.3378c0,-12.561 -0.616536,-20.5347 -1.81063,-23.9256 -1.23189,-3.38977 -3.35197,-6.04843 -6.39449,-8.05158 -3.04488,-2.00315 -6.85867,-3.00591 -11.4437,-3.00591 -5.27717,0 -9.97796,1.27205 -14.1,3.85394 -4.16103,2.54173 -7.20473,6.39567 -9.09213,11.5583 -1.92756,5.16142 -2.88898,12.789 -2.88898,22.8449l0 60.0638 -31.7079 0 0 -165.473 31.7079 0zm164.547 45.6154l0 25.2732 -21.652 0 0 48.3142c0,9.78544 0.19252,15.4866 0.616536,17.1047 0.422835,1.61811 1.34764,2.92796 2.81221,4.0063 1.46339,1.04055 3.2752,1.58032 5.35394,1.58032 2.96693,0 7.20473,-1.04173 12.7913,-3.04488l2.69764 24.5811c-7.39843,3.15827 -15.7193,4.73859 -25.0807,4.73859 -5.70355,0 -10.865,-0.96378 -15.45,-2.85 -4.58504,-1.92756 -7.93583,-4.4315 -10.0937,-7.47638 -2.15669,-3.04252 -3.62126,-7.16575 -4.46811,-12.3662 -0.655512,-3.66024 -1.00276,-11.1343 -1.00276,-22.3453l0 -52.2426 -14.563 0 0 -25.2732 14.563 0 0 -23.8465 31.8236 -18.4937 0 42.3402 21.652 0zm76.976 0l0 25.2732 -21.652 0 0 48.3142c0,9.78544 0.19252,15.4866 0.616536,17.1047 0.422835,1.61811 1.34764,2.92796 2.81221,4.0063 1.46457,1.04055 3.2752,1.58032 5.35512,1.58032 2.96693,0 7.20355,-1.04173 12.7913,-3.04488l2.69646 24.5811c-7.39725,3.15827 -15.7193,4.73859 -25.0807,4.73859 -5.70237,0 -10.865,-0.96378 -15.45,-2.85 -4.58386,-1.92756 -7.93583,-4.4315 -10.0937,-7.47638 -2.15669,-3.04252 -3.62126,-7.16575 -4.46811,-12.3662 -0.655512,-3.66024 -1.00276,-11.1343 -1.00276,-22.3453l0 -52.2426 -14.5618 0 0 -25.2732 14.5618 0 0 -23.8465 31.8236 -18.4937 0 42.3402 21.652 0zm21.1134 0l29.5878 0 0 17.6079c3.81496,-6.04961 9.01536,-10.9417 15.5646,-14.6788 6.54922,-3.77599 13.8307,-5.66457 21.8055,-5.66457 13.9087,0 25.7362,5.47087 35.4059,16.3748 9.70985,10.9028 14.5642,26.1201 14.5642,45.6142 0,19.9961 -4.89331,35.5607 -14.6398,46.6559 -9.78662,11.0965 -21.652,16.6441 -35.5607,16.6441 -6.62717,0 -12.6366,-1.30984 -18.0295,-3.93071 -5.3563,-2.6563 -11.0197,-7.16575 -16.9902,-13.5614l0 60.4111 -31.7079 0 0 -165.473zm31.3984 57.906c0,13.4457 2.65748,23.4248 8.01379,29.8181 5.31615,6.43465 11.8276,9.67205 19.5331,9.67205 7.35945,0 13.4835,-2.96693 18.3768,-8.86064 4.89213,-5.89607 7.35945,-15.6036 7.35945,-29.0504 0,-12.5976 -2.54292,-21.9201 -7.59095,-28.0075 -5.04567,-6.08741 -11.2878,-9.13229 -18.724,-9.13229 -7.74331,0 -14.178,2.96693 -19.3016,8.97638 -5.12363,5.97166 -7.66654,14.8335 -7.66654,26.5843zm116.812 -26.1981l0 -31.7079 31.7067 0 0 31.7079 -31.7067 0zm0 88.1493l0 -31.7079 31.7067 0 0 31.7079 -31.7067 0zm53.9374 2.81103l40.9926 -171.096 23.8087 0 -41.4154 171.096 -23.3858 0zm64.2237 0l40.9926 -171.096 23.8087 0 -41.4154 171.096 -23.3858 0zm452.25 -610.837c17.6728,0 31.9996,14.3268 31.9996,31.9996 0,17.6728 -14.3268,31.9996 -31.9996,31.9996 -17.6728,0 -31.9996,-14.3268 -31.9996,-31.9996 0,-17.6728 14.3268,-31.9996 31.9996,-31.9996zm190.97 0c17.6728,0 31.9996,14.3268 31.9996,31.9996 0,17.6728 -14.3268,31.9996 -31.9996,31.9996 -17.6728,0 -31.9996,-14.3268 -31.9996,-31.9996 0,-17.6728 14.3268,-31.9996 31.9996,-31.9996zm-96.0001 0c17.6728,0 31.9996,14.3268 31.9996,31.9996 0,17.6728 -14.3268,31.9996 -31.9996,31.9996 -17.6728,0 -31.9996,-14.3268 -31.9996,-31.9996 0,-17.6728 14.3268,-31.9996 31.9996,-31.9996zm-1248 123.628l1464 0 0 36.0189 -1464 0 0 -36.0189z"/>
 </g>
 <rect class="fil1" width="2048" height="2048"/>
</svg>
